<?xml version="1.0" standalone="no"?>
<!DOCTYPE svg PUBLIC "-//W3C//DTD SVG 20010904//EN"
 "http://www.w3.org/TR/2001/REC-SVG-20010904/DTD/svg10.dtd">
<svg version="1.0" xmlns="http://www.w3.org/2000/svg"
 width="96.000000pt" height="96.000000pt" viewBox="0 0 96.000000 96.000000"
 preserveAspectRatio="xMidYMid meet">
<metadata>
Created by potrace 1.14, written by Peter Selinger 2001-2017
</metadata>
<g transform="translate(0.000000,96.000000) scale(0.100000,-0.100000)"
fill="#000000" stroke="none">
<path d="M260 506 c0 -141 -4 -149 -72 -144 -39 3 -44 6 -53 36 -12 40 -45 45
-45 6 0 -61 36 -93 107 -94 44 0 58 5 83 28 34 30 36 40 32 200 -2 91 -2 92
-27 92 l-25 0 0 -124z"/>
<path d="M442 473 c3 -150 4 -158 23 -158 19 0 20 8 23 158 l3 157 -26 0 -26
0 3 -157z"/>
<path d="M630 475 l0 -155 125 0 c118 0 125 1 125 20 0 19 -7 20 -95 20 l-95
0 0 135 0 135 -30 0 -30 0 0 -155z"/>
</g>
</svg>
